<?xml version="1.0" encoding="utf-8"?>
<!-- Generator: Adobe Illustrator 23.0.5, SVG Export Plug-In . SVG Version: 6.00 Build 0)  -->
<svg version="1.1" id="Capa_1" xmlns="http://www.w3.org/2000/svg" xmlns:xlink="http://www.w3.org/1999/xlink" x="0px" y="0px"
	 viewBox="0 0 512 512" style="enable-background:new 0 0 512 512;" xml:space="preserve">
<style type="text/css">
	.st0{fill:#FF4C00;}
</style>
<g>
	<g>
		<path class="st0" d="M15,90h15v60c0,8.3,6.7,15,15,15s15-6.7,15-15V90h15c8.3,0,15-6.7,15-15V60h60c8.3,0,15-6.7,15-15
			s-6.7-15-15-15H90V15c0-8.3-6.7-15-15-15H15C6.7,0,0,6.7,0,15v60C0,83.3,6.7,90,15,90z M30,30h30v30H30V30z M497,0h-60
			c-8.3,0-15,6.7-15,15v15h-60c-8.3,0-15,6.7-15,15s6.7,15,15,15h60v15c0,8.3,6.7,15,15,15h15v60c0,8.3,6.7,15,15,15s15-6.7,15-15
			V90h15c8.3,0,15-6.7,15-15V15C512,6.7,505.3,0,497,0z M482,60h-30V30h30V60z M497,422h-15v-60c0-8.3-6.7-15-15-15s-15,6.7-15,15
			v60h-15c-8.3,0-15,6.7-15,15v15h-60c-8.3,0-15,6.7-15,15s6.7,15,15,15h60v15c0,8.3,6.7,15,15,15h60c8.3,0,15-6.7,15-15v-60
			C512,428.7,505.3,422,497,422z M482,482h-30v-30h30V482z M211,60h90c8.3,0,15-6.7,15-15s-6.7-15-15-15h-90c-8.3,0-15,6.7-15,15
			S202.7,60,211,60z M301,452h-90c-8.3,0-15,6.7-15,15s6.7,15,15,15h90c8.3,0,15-6.7,15-15S309.3,452,301,452z M150,452H90v-15
			c0-8.3-6.7-15-15-15H60v-60c0-8.3-6.7-15-15-15s-15,6.7-15,15v60H15c-8.3,0-15,6.7-15,15v60c0,8.3,6.7,15,15,15h60
			c8.3,0,15-6.7,15-15v-15h60c8.3,0,15-6.7,15-15S158.3,452,150,452z M60,482H30v-30h30V482z M45,196c-8.3,0-15,6.7-15,15v90
			c0,8.3,6.7,15,15,15s15-6.7,15-15v-90C60,202.7,53.3,196,45,196z M467,316c8.3,0,15-6.7,15-15v-90c0-8.3-6.7-15-15-15
			s-15,6.7-15,15v90C452,309.3,458.7,316,467,316z M301,421c66.2,0,120-53.8,120-120s-53.8-120-120-120v-75c0-8.3-6.7-15-15-15H106
			c-8.3,0-15,6.7-15,15v180c0,8.3,6.7,15,15,15h75C181,367.2,234.8,421,301,421z M121,271V121h150v64.3
			c-42,10.9-74.8,43.8-85.7,85.7H121z M271,216.5V271h-54.5C225.6,245.6,245.6,225.6,271,216.5z M286,301c8.3,0,15-6.7,15-15v-75
			c49.6,0,90,40.4,90,90s-40.4,90-90,90s-90-40.4-90-90H286z"/>
	</g>
</g>
</svg>
