<?xml version="1.0" encoding="utf-8"?>
<!-- Generator: Adobe Illustrator 23.0.5, SVG Export Plug-In . SVG Version: 6.00 Build 0)  -->
<svg version="1.1" id="Capa_1" xmlns="http://www.w3.org/2000/svg" xmlns:xlink="http://www.w3.org/1999/xlink" x="0px" y="0px"
	 viewBox="0 0 512 512" style="enable-background:new 0 0 512 512;" xml:space="preserve">
<style type="text/css">
	.st0{fill:#FF4C00;}
</style>
<g>
	<g>
		<path class="st0" d="M256,0C165,0,91,74,91,165c0,72,24.2,108.3,47.5,143.3C160.4,341.1,181,374,181,437c0,41.4,33.6,75,75,75
			s75-33.6,75-75c0-63,20.6-95.9,42.5-128.7C396.8,273.3,421,237,421,165C421,74,347,0,256,0z M256,482c-19.6,0-36.2-12.5-42.4-30
			h84.9C292.2,469.5,275.6,482,256,482z M348.5,291.7c-21.6,32.5-43.7,68.3-46.9,130.3h-91.3c-3.2-62-25.2-97.9-46.9-130.3
			C141.6,258.9,121,228,121,165c0-74.4,60.6-135,135-135s135,60.6,135,135C391,228,370.4,258.9,348.5,291.7z M275.4,214.4
			c-1.8,1.8-11,12-19.4,34.2c-8.4-22.2-17.6-32.3-19.4-34.2c-5.8-5.8-15.1-5.8-20.9-0.1c-5.9,5.7-6,15.1-0.5,21.1
			C215.5,235.7,241,264,241,345c0,8.3,6.7,15,15,15s15-6.7,15-15c0-81,25.5-109.3,25.6-109.4c5.9-5.9,5.9-15.4,0-21.2
			S281.3,208.5,275.4,214.4L275.4,214.4z"/>
	</g>
</g>
</svg>
