<?xml version="1.0" encoding="utf-8"?>
<!-- Generator: Adobe Illustrator 23.0.5, SVG Export Plug-In . SVG Version: 6.00 Build 0)  -->
<svg version="1.1" id="Capa_1" xmlns="http://www.w3.org/2000/svg" xmlns:xlink="http://www.w3.org/1999/xlink" x="0px" y="0px"
	 viewBox="0 0 512 512" style="enable-background:new 0 0 512 512;" xml:space="preserve">
<style type="text/css">
	.st0{fill:#FF4C00;}
</style>
<g>
	<g>
		<path class="st0" d="M301.4,272c0,8.3,6.7,15,15,15s15-6.7,15-15c0-29-25.8-53.2-60-58.8V197c0-8.3-6.7-15-15-15s-15,6.7-15,15
			v16.2c-34.2,5.6-60,29.8-60,58.8s25.8,53.2,60,58.8v59.3c-17.2-4.2-30-15.3-30-28.1c0-8.3-6.7-15-15-15s-15,6.7-15,15
			c0,29,25.8,53.2,60,58.8V437c0,8.3,6.7,15,15,15c8.3,0,15-6.7,15-15v-16.2c34.2-5.6,60-29.8,60-58.8s-25.8-53.2-60-58.8v-59.3
			C288.6,248.1,301.4,259.2,301.4,272z M241.4,300.1c-17.2-4.2-30-15.3-30-28.1s12.8-23.9,30-28.1V300.1z M301.4,362
			c0,12.8-12.8,23.9-30,28.1v-56.2C288.6,338.1,301.4,349.2,301.4,362L301.4,362z M302.4,131.2c5.3-37,57.7-64.9,78.7-71.9
			c0.2-0.1,0.3-0.2,0.4-0.2c5.8-2.2,9.5-8.5,9.7-13.4c0.1-2.9-1-7.6-4-10.8c-0.1-0.1-0.1-0.3-0.2-0.4C383.5,30.9,351.6,0,316.4,0
			c-24.3,0-47.1,14.8-60,25c-12.9-10.3-35.7-25-60-25c-35.2,0-67.1,30.9-70.6,34.4c-2.1,3-4.5,6.5-4.3,11.2
			c0.2,5.3,4.1,11.4,9.7,13.4c0.2,0.1,0.3,0.2,0.4,0.2c0.8,0.3,72.7,27.6,79.1,71.6C46.4,273.6,35.1,368.3,55.3,422.8
			c23.3,63.1,93.1,89.2,125.4,89.2h151.5c31.9,0,101.1-26.4,124.5-89.9C476.8,367.6,465.8,273,302.4,131.2L302.4,131.2z M165.6,41.2
			C175,35.2,186.1,30,196.4,30c19.4,0,42.2,18.5,49.4,25.6c5.9,5.8,15.3,5.8,21.2,0c7.2-7.1,30.1-25.6,49.4-25.6
			c10.3,0,21.4,5.2,30.8,11.2c-26.5,13.1-65.9,41-74.1,80.8h-33.4C231.5,82.2,192.1,54.3,165.6,41.2z M428.6,411.7
			c-18.5,50.1-75.7,70.3-96.4,70.3H180.6c-25.7,0-80.1-23.3-97.2-69.6C66.5,366.6,79,284.4,232.1,152h48.6
			C433.2,283.6,445.5,365.9,428.6,411.7L428.6,411.7z"/>
	</g>
</g>
</svg>
