<?xml version="1.0" encoding="utf-8"?>
<!-- Generator: Adobe Illustrator 23.0.5, SVG Export Plug-In . SVG Version: 6.00 Build 0)  -->
<svg version="1.1" id="Capa_1" xmlns="http://www.w3.org/2000/svg" xmlns:xlink="http://www.w3.org/1999/xlink" x="0px" y="0px"
	 viewBox="0 0 512 512" style="enable-background:new 0 0 512 512;" xml:space="preserve">
<style type="text/css">
	.st0{fill:#FF4C00;}
</style>
<g>
	<g>
		<path class="st0" d="M256,120c-8.3,0-15,6.7-15,15s6.7,15,15,15s15-6.7,15-15S264.3,120,256,120z M256,60
			c-57.9,0-105,47.1-105,105c0,40.5,23.7,77.2,60,94.5V377c0,4,1.6,7.8,4.4,10.6l30,30c2.9,2.9,6.8,4.4,10.6,4.4
			c3.8,0,7.7-1.5,10.6-4.4l30-30c2.8-2.8,4.4-6.6,4.4-10.6V259.5c36.3-17.3,60-54,60-94.5C361,107.1,313.9,60,256,60z M281,235.4
			c-6,2.1-10,7.8-10,14.1v121.3l-15,15l-15-15V249.5c0-6.3-4-12-10-14.1c-29.9-10.6-50-38.9-50-70.4c0-41.4,33.6-75,75-75
			s75,33.6,75,75C331,196.4,310.9,224.7,281,235.4L281,235.4z M436,60c-24.8,0-45-20.2-45-45c0-8.3-6.7-15-15-15H136
			c-8.3,0-15,6.7-15,15c0,24.8-20.2,45-45,45c-8.3,0-15,6.7-15,15v170.3c0,118.4,75.2,227.6,190.3,266c1.5,0.5,3.1,0.8,4.7,0.8
			c1.6,0,3.2-0.3,4.7-0.8c115-38.3,190.3-147.6,190.3-266V75C451,66.7,444.3,60,436,60z M421,245.3c0,106.5-66.1,200.7-165,235.9
			C157.1,445.9,91,351.8,91,245.3V88.5c29.3-6,52.5-29.2,58.5-58.5h213c6,29.3,29.2,52.5,58.5,58.5L421,245.3z"/>
	</g>
</g>
</svg>
