<?xml version="1.0" encoding="utf-8"?>
<!-- Generator: Adobe Illustrator 23.0.5, SVG Export Plug-In . SVG Version: 6.00 Build 0)  -->
<svg version="1.1" id="Capa_1" xmlns="http://www.w3.org/2000/svg" xmlns:xlink="http://www.w3.org/1999/xlink" x="0px" y="0px"
	 viewBox="0 0 512 512" style="enable-background:new 0 0 512 512;" xml:space="preserve">
<style type="text/css">
	.st0{fill:#FF4C00;}
</style>
<g>
	<g>
		<path class="st0" d="M407,286H286c-8.3,0-15,6.7-15,15v120c0,8.3,6.7,15,15,15h121c8.3,0,15-6.7,15-15V301
			C422,292.7,415.3,286,407,286z M392,406h-91v-90h91V406z M512,150.9c0-2.4-0.6-4.7-1.6-6.6L482,87.5V31c0-8.3-6.7-15-15-15H45
			c-8.3,0-15,6.7-15,15v56.5L1.6,144.3c-1,1.9-1.6,4.3-1.6,6.6c0,0,0,0.1,0,0.1v42c0,22.6,12,42.5,30,53.6V481c0,8.3,6.7,15,15,15
			h422c8.3,0,15-6.7,15-15V246.6c18-11.1,30-31,30-53.6L512,150.9C512,151,512,150.9,512,150.9z M60,46h392v30H60V46z M54.3,106
			h403.5l15,30H39.3L54.3,106z M211,466h-91V316h91V466z M452,466H241V301c0-8.3-6.7-15-15-15H105c-8.3,0-15,6.7-15,15v165H60V255.9
			c20.3,1,38.9-7.8,51.2-22.4c12.2,14.1,29.7,22.5,48.8,22.5c19.2,0,36.4-8.6,48-22.2c11.6,13.6,28.8,22.2,48,22.2s36.4-8.6,48-22.2
			c11.6,13.6,28.8,22.2,48,22.2c19.1,0,36.6-8.4,48.8-22.5c12.3,14.6,30.9,23.3,51.2,22.4V466z M482,193c0,18.2-14.8,33-33,33
			c-18.2,0-33-14.8-33-33c0-8.3-6.7-15-15-15s-15,6.7-15,15c0,17.9-15.6,33-34,33c-18.2,0-33-14.8-33-33c0-8.3-6.7-15-15-15
			s-15,6.7-15,15c0,18.2-14.8,33-33,33s-33-14.8-33-33c0-8.3-6.7-15-15-15s-15,6.7-15,15c0,18.2-14.8,33-33,33
			c-18.4,0-34-15.1-34-33c0-8.3-6.7-15-15-15s-15,6.7-15,15c0,18.2-14.8,33-33,33c-18.2,0-33-14.8-33-33v-27h452V193z"/>
	</g>
</g>
</svg>
