<?xml version="1.0" encoding="utf-8"?>
<!-- Generator: Adobe Illustrator 23.0.5, SVG Export Plug-In . SVG Version: 6.00 Build 0)  -->
<svg version="1.1" id="Layer_1" xmlns="http://www.w3.org/2000/svg" xmlns:xlink="http://www.w3.org/1999/xlink" x="0px" y="0px"
	 viewBox="0 0 62 15" style="enable-background:new 0 0 62 15;" xml:space="preserve">
<style type="text/css">
	.st0{fill:#E9327C;}
	.st1{fill:#1DACE3;}
	.st2{fill:#001A49;}
	.st3{fill:#FFFFFF;}
</style>
<path class="st0" d="M8.4,11.5L0.9,6.3C0.1,5.7,0.4,4.6,1.3,4.4l8-2.2C10,2,10.6,2.3,10.8,2.9c0,0.1,0.1,0.3,0.1,0.4l-0.5,7.3
	C10.3,11.5,9.2,12,8.4,11.5z"/>
<path class="st1" d="M6.1,12.7L1.6,4c-0.3-0.6,0-1.3,0.5-1.6c0.2-0.1,0.5-0.2,0.8-0.1l8.2,1.3c0.7,0.1,1.1,0.7,1,1.4
	c0,0.1,0,0.3-0.1,0.4l-3.8,7.4c-0.3,0.6-1,0.8-1.6,0.5C6.3,13.2,6.2,12.9,6.1,12.7z"/>
<path class="st2" d="M10.9,3.5L6.8,2.9l-5,1.4l2,3.9l4.7,3.2c0.1,0.1,0.2,0.1,0.3,0.2l1.8-3.5L10.9,3.5z"/>
<path class="st3" d="M31.6,4.5c0-0.4,0.3-0.8,0.8-0.8c0.4,0,0.8,0.3,0.8,0.8s-0.3,0.8-0.8,0.8l0,0C32,5.3,31.6,5,31.6,4.5z
	 M31.8,5.7h1.3V10h-1.3V5.7z"/>
<path class="st3" d="M38.6,7.9c0,1.2-0.8,2.2-2,2.3l0,0c-0.5,0-1-0.2-1.3-0.5v2.1H34v-6h1.3v0.4c0.3-0.3,0.8-0.5,1.3-0.5
	C37.7,5.6,38.6,6.6,38.6,7.9C38.6,7.8,38.6,7.9,38.6,7.9z M37.3,7.9c0-0.5-0.5-1-1-1c-0.5,0-1,0.5-1,1.1c0,0.5,0.5,1,1,1
	c0.5,0,1-0.4,1-0.9C37.3,7.9,37.3,7.9,37.3,7.9z"/>
<path class="st3" d="M42.6,8.7c0,1-0.8,1.4-1.8,1.4c-0.8,0.1-1.5-0.3-1.8-1l1.1-0.6C40.2,8.8,40.5,9,40.8,9c0.3,0,0.5-0.1,0.5-0.3
	c0-0.5-2.1-0.2-2.1-1.7c0-0.9,0.8-1.4,1.7-1.4c0.7,0,1.3,0.3,1.7,0.9l-1.1,0.6c-0.1-0.2-0.3-0.4-0.6-0.4c-0.2,0-0.4,0.1-0.4,0.3
	C40.5,7.4,42.6,7.1,42.6,8.7z"/>
<path class="st3" d="M47.3,5.7V10H46V9.6c-0.3,0.4-0.8,0.5-1.2,0.5c-0.9,0-1.6-0.6-1.6-1.8V5.7h1.3v2.4c0,0.4,0.3,0.8,0.6,0.8
	c0,0,0.1,0,0.1,0C45.7,8.9,46,8.6,46,8V5.6L47.3,5.7L47.3,5.7z"/>
<path class="st3" d="M54.6,7.4V10h-1.3V7.5c0-0.4-0.2-0.7-0.6-0.7c-0.4,0-0.7,0.3-0.7,0.8V10h-1.3V7.4c0-0.4-0.2-0.7-0.6-0.7
	c-0.4,0-0.7,0.3-0.7,0.8v2.4h-1.3V5.7h1.3v0.4c0.3-0.3,0.7-0.5,1.1-0.5c0.5,0,0.9,0.2,1.1,0.5c0.3-0.4,0.8-0.6,1.3-0.5
	C54,5.6,54.6,6.3,54.6,7.4z"/>
<circle class="st3" cx="55.7" cy="4.7" r="1"/>
<path class="st3" d="M14.1,3.8h1.3V10h-1.3V3.8z M16.1,7.9c0-1.3,1-2.3,2.3-2.3c1.3,0,2.3,1,2.3,2.3s-1,2.3-2.3,2.3l0,0
	C17.1,10.1,16.1,9.1,16.1,7.9L16.1,7.9z M19.4,7.9c0-0.5-0.5-1-1-1c-0.5,0-1,0.5-1,1c0,0.5,0.5,1,1,1C18.9,8.9,19.3,8.5,19.4,7.9
	C19.4,7.9,19.4,7.9,19.4,7.9L19.4,7.9z M25.8,5.7v4.1c0,1.4-1.1,2.1-2.3,2.1c-0.8,0-1.6-0.3-2-1.1l1.1-0.6c0.2,0.4,0.6,0.6,1,0.5
	c0.5,0.1,0.9-0.3,1-0.7c0,0,0-0.1,0-0.2V9.5c-0.3,0.4-0.8,0.6-1.3,0.5c-1.2,0-2.1-1-2.1-2.2c0-1.1,1-2.1,2.1-2.1
	c0.5,0,1,0.2,1.3,0.5V5.8L25.8,5.7z M24.5,7.8c0-0.6-0.4-1.1-1-1.1s-1,0.4-1.1,1c0,0.6,0.4,1.1,1,1.1h0c0.5,0,1-0.4,1.1-0.9
	C24.5,7.8,24.5,7.8,24.5,7.8L24.5,7.8z M26.5,7.9c0-1.3,1-2.3,2.3-2.3s2.3,1,2.3,2.3s-1,2.3-2.3,2.3l0,0
	C27.5,10.1,26.5,9.1,26.5,7.9L26.5,7.9L26.5,7.9z M29.7,7.9c0-0.5-0.5-1-1-1c-0.5,0-1,0.5-1,1s0.5,1,1,1C29.3,8.9,29.7,8.5,29.7,7.9
	C29.7,7.9,29.7,7.9,29.7,7.9L29.7,7.9z"/>
</svg>
