<?xml version="1.0" encoding="utf-8"?>
<!-- Generator: Adobe Illustrator 23.0.5, SVG Export Plug-In . SVG Version: 6.00 Build 0)  -->
<svg version="1.1" id="Capa_1" xmlns="http://www.w3.org/2000/svg" xmlns:xlink="http://www.w3.org/1999/xlink" x="0px" y="0px"
	 viewBox="0 0 512 512" style="enable-background:new 0 0 512 512;" xml:space="preserve">
<style type="text/css">
	.st0{fill:#FF4C00;}
</style>
<g>
	<g>
		<path class="st0" d="M346,361h90c8.3,0,15-6.7,15-15s-6.7-15-15-15h-90c-8.3,0-15,6.7-15,15S337.7,361,346,361z M497,31H15
			C6.7,31,0,37.7,0,46v420c0,8.3,6.7,15,15,15h482c8.3,0,15-6.7,15-15V46C512,37.7,505.3,31,497,31z M211,61h90v128.8l-34.4-34.4
			c-5.9-5.9-15.4-5.9-21.2,0L211,189.8L211,61z M482,451H30V61h151v165c0,13.3,16.1,20.1,25.6,10.6l49.4-49.4l49.4,49.4
			c9.4,9.4,25.6,2.7,25.6-10.6V61h151V451z M436,391h-90c-8.3,0-15,6.7-15,15s6.7,15,15,15h90c8.3,0,15-6.7,15-15S444.3,391,436,391
			z"/>
	</g>
</g>
</svg>
